<svg width="128" height="128" viewBox="0 0 128 128" fill="none" xmlns="http://www.w3.org/2000/svg">
<style>
  * {
    transform-origin: 50% 50%;
  }
  @keyframes anim {
    0% {transform: scale(0); opacity: 0;}
    40% {transform: scale(1); opacity: 1;}
    80% {transform: scale(1); opacity: 1;}
    100% {transform: scale(1); opacity: 0;}
  }
  .parts {
    animation-name: anim;
    animation-duration: 3s;
    animation-iteration-count: infinite;
    animation-fill-mode: forwards;
    transform: scale(0);
    opacity: 0;
  }
  .parts:nth-of-type(8) {
    animation-delay: .0s;
  }
  .parts:nth-of-type(1) {
    animation-delay: .2s;
  }
  .parts:nth-of-type(2) {
    animation-delay: .1s;
  }
  .parts:nth-of-type(3) {
    animation-delay: .4s;
  }
  .parts:nth-of-type(4) {
    animation-delay: .3s;
  }
  .parts:nth-of-type(5) {
    animation-delay: .6s;
  }
  .parts:nth-of-type(6) {
    animation-delay: .5s;
  }
  .parts:nth-of-type(7) {
    animation-delay: .7s;
  }
  @keyframes group_rotation {
    0% {transform: rotate(0deg)}
    25% {transform: rotate(90deg)}
    50% {transform: rotate(180deg)}
    75% {transform: rotate(270deg)}
    100% {transform: rotate(360deg)}
  }
  .rotation {
    transform: rotation(0deg);
    animation: group_rotation 12s linear infinite;
  }

</style>
<circle cx="63.9999" cy="64" r="63.9999" fill="white"/>
<g class="rotation">
<g class="group">
<path class="parts" fill-rule="evenodd" clip-rule="evenodd" d="M120.033 33.1956C114.498 23.1133 106.316 14.7328 96.4015 8.90192C94.3428 9.31797 92.2941 9.78477 90.2609 10.3129C81.9594 12.4694 73.9236 15.5426 66.3142 19.4915C83.9846 29.9509 98.5883 44.9052 108.538 62.8672C113.729 53.5674 117.61 43.5681 120.033 33.1956V33.1956Z" fill="#D2E28B" fill-opacity=".6"/>
<path class="parts" fill-rule="evenodd" clip-rule="evenodd" d="M109.48 64.6062C111.05 67.5749 112.433 70.6817 113.713 73.781C115.824 78.8924 117.96 84.5719 119.353 89.9274C119.711 91.3047 120.131 92.772 120.43 94.1997C120.461 94.141 120.492 94.0821 120.524 94.0231L120.759 93.5771C120.921 93.2717 121.076 92.9627 121.231 92.6538C121.304 92.5071 121.377 92.3607 121.45 92.2134C121.604 91.8997 121.755 91.5846 121.904 91.2683C121.97 91.1278 122.037 90.9875 122.102 90.847C122.251 90.5245 122.397 90.2 122.54 89.8752C122.604 89.7311 122.668 89.5871 122.73 89.4424C122.875 89.1091 123.016 88.7738 123.155 88.4384C123.208 88.3105 123.262 88.1822 123.314 88.0537C123.455 87.7043 123.594 87.3534 123.729 87.0016L123.875 86.6219C124.008 86.2745 124.134 85.9245 124.26 85.5742C124.308 85.4404 124.356 85.3063 124.404 85.1722C124.527 84.8207 124.647 84.4683 124.764 84.1145L124.894 83.7201C125.012 83.3625 125.123 83.003 125.232 82.643L125.349 82.259C125.46 81.8899 125.565 81.5184 125.668 81.1467L125.768 80.7884C125.875 80.4049 125.972 80.0194 126.07 79.6336L126.153 79.3064C126.254 78.9024 126.347 78.4963 126.439 78.09L126.5 77.8183C126.594 77.4063 126.678 76.9923 126.761 76.5777L126.816 76.3031C126.901 75.8821 126.976 75.459 127.05 75.0359L127.094 74.7891C127.171 74.3511 127.239 73.9122 127.304 73.4723L127.334 73.2722C127.402 72.8177 127.462 72.3624 127.518 71.9064L127.539 71.7368C127.598 71.2662 127.648 70.7944 127.695 70.3226L127.707 70.2006C127.754 69.7241 127.79 69.2467 127.828 68.7696L127.839 68.6323C127.877 68.152 127.899 67.6705 127.925 67.1896L127.931 67.074C127.958 66.5773 127.972 66.0794 127.983 65.5821L127.984 65.5263C127.995 65.0128 128 64.4988 128 63.985V63.9525C128 63.4405 127.988 62.9279 127.977 62.4159L127.975 62.3581C127.965 61.8429 127.936 61.328 127.914 60.813L127.912 60.7743C127.726 56.4598 127.01 52.1772 125.928 47.9997L125.922 47.9754C125.791 47.4713 125.653 46.9698 125.509 46.4696L125.474 46.3458C125.336 45.8646 125.191 45.3855 125.04 44.9081L124.996 44.7675C124.852 44.3098 124.703 43.8536 124.546 43.4003L124.466 43.167C124.327 42.7651 124.185 42.364 124.037 41.9655L123.879 41.5415C123.745 41.1801 123.605 40.8209 123.463 40.463C123.395 40.2913 123.325 40.1206 123.256 39.9498C123.144 39.6758 123.03 39.4023 122.915 39.1294C122.802 38.8642 122.688 38.6002 122.573 38.337C122.487 38.1421 122.401 37.9479 122.313 37.7545C122.169 37.4347 122.022 37.1161 121.873 36.7989L121.731 36.5023C121.578 36.186 121.424 35.87 121.267 35.5555C118.697 45.7399 114.687 55.4801 109.48 64.6062V64.6062Z" fill="#A53692" fill-opacity=".6"/>
<path class="parts" fill-rule="evenodd" clip-rule="evenodd" d="M65.1338 108.612C74.4416 113.798 84.4489 117.676 94.8297 120.097C104.92 114.567 113.308 106.392 119.143 96.4845C118.726 94.4275 118.259 92.3804 117.731 90.3488C115.572 82.0539 112.497 74.0246 108.545 66.4213C98.0768 84.0781 83.1108 98.6698 65.1338 108.612Z" fill="#7A75B5" fill-opacity=".6"/>
<path class="parts" fill-rule="evenodd" clip-rule="evenodd" d="M92.573 121.274C82.3678 118.713 72.5402 114.76 63.395 109.554C55.3974 113.799 46.9241 117.083 38.1589 119.36C36.7166 119.735 35.266 120.079 33.8098 120.397C33.8932 120.441 33.9766 120.485 34.0603 120.53L34.5063 120.766C34.8123 120.927 35.1215 121.082 35.4307 121.237C35.5772 121.309 35.7241 121.383 35.8712 121.455C36.1848 121.609 36.5007 121.76 36.817 121.909C36.9579 121.975 37.0983 122.041 37.239 122.107C37.5617 122.256 37.8861 122.401 38.2115 122.545C38.3554 122.608 38.4996 122.672 38.6446 122.735C38.9782 122.879 39.3138 123.02 39.6492 123.159C39.7775 123.212 39.9058 123.265 40.0344 123.317C40.3842 123.458 40.7353 123.598 41.0871 123.733L41.4671 123.878C41.8148 124.012 42.1651 124.137 42.5157 124.263C42.6499 124.311 42.7841 124.36 42.918 124.407C43.27 124.53 43.6227 124.649 43.9768 124.766L44.3715 124.896C44.7291 125.015 45.0892 125.125 45.4498 125.234L45.8335 125.351C46.2032 125.463 46.5747 125.567 46.9467 125.67L47.3055 125.77C47.6893 125.876 48.0755 125.974 48.4619 126.072L48.7884 126.154C49.1928 126.256 49.5992 126.348 50.0062 126.44L50.2781 126.502C50.6904 126.595 51.1047 126.679 51.5193 126.762L51.7941 126.817C52.2158 126.902 52.6393 126.977 53.0624 127.051L53.3096 127.095C53.7477 127.172 54.1873 127.24 54.6272 127.305L54.8275 127.335C55.2826 127.402 55.7383 127.462 56.1949 127.519L56.3644 127.54C56.8351 127.598 57.307 127.648 57.7794 127.695L57.9019 127.707C58.3788 127.755 58.8562 127.791 59.334 127.828L59.4714 127.839C59.9518 127.877 60.4337 127.899 60.9152 127.925L61.0306 127.931C61.528 127.958 62.0261 127.972 62.5238 127.983L62.5796 127.984C63.0937 127.996 63.6082 128 64.1224 128H64.155C64.6674 128 65.1801 127.988 65.6925 127.977L65.7503 127.975C66.266 127.965 66.7813 127.936 67.2966 127.914L67.3357 127.912C71.6537 127.727 75.9397 127.01 80.1205 125.93L80.1446 125.924C80.6491 125.793 81.1512 125.654 81.6522 125.511L81.7767 125.475C82.2579 125.338 82.7372 125.193 83.2146 125.043L83.3553 124.999C83.8131 124.854 84.27 124.706 84.7236 124.549L84.9571 124.469C85.3591 124.33 85.7605 124.188 86.1593 124.04L86.5839 123.882C86.9453 123.749 87.3047 123.609 87.663 123.466C87.8348 123.399 88.0056 123.329 88.1765 123.26C88.4511 123.148 88.7248 123.034 88.9979 122.919C89.263 122.807 89.527 122.693 89.7904 122.577C89.9854 122.492 90.1798 122.405 90.3739 122.318C90.6954 122.173 91.0152 122.023 91.3353 121.875L91.3526 121.867L91.6268 121.737C91.9431 121.584 92.2588 121.43 92.573 121.274V121.274Z" fill="#0098DA" fill-opacity=".6"/>
<path class="parts" fill-rule="evenodd" clip-rule="evenodd" d="M31.5964 119.15C33.6551 118.734 35.7045 118.268 37.7376 117.739C46.0388 115.583 54.0746 112.51 61.684 108.561C44.0083 98.0948 29.3551 83.0436 19.4036 65.0787C14.2132 74.3949 10.3879 84.4775 7.96509 94.8564C13.5002 104.939 21.6816 113.319 31.5964 119.15Z" fill="#91D8F7" fill-opacity=".6"/>
<path class="parts" fill-rule="evenodd" clip-rule="evenodd" d="M6.732 92.4955C9.2952 82.2982 13.2508 72.4784 18.4606 63.3406C14.2128 55.3494 10.9255 46.8829 8.64684 38.1247C8.27186 36.6829 7.92743 35.2338 7.60941 33.7782C7.56508 33.8615 7.52044 33.9443 7.47669 34.0282L7.24119 34.4744C7.07969 34.7805 6.92434 35.0897 6.7693 35.399C6.69589 35.5457 6.62218 35.6918 6.55024 35.8388C6.39608 36.1521 6.24516 36.4678 6.09599 36.7838C6.02992 36.9241 5.96355 37.0643 5.89866 37.2052C5.74949 37.5279 5.60326 37.8518 5.45967 38.1772C5.39595 38.321 5.33222 38.4651 5.26938 38.61C5.12491 38.9427 4.98425 39.2772 4.84536 39.6132C4.79221 39.742 4.73849 39.8705 4.68592 39.9999C4.5441 40.349 4.40608 40.699 4.27071 41.0505L4.12477 41.4302C3.99145 41.7779 3.86519 42.1277 3.73981 42.4777C3.69165 42.6118 3.64349 42.7455 3.59621 42.8796C3.47288 43.2311 3.35308 43.5841 3.23622 43.938L3.10584 44.3323C2.9878 44.6897 2.87767 45.0503 2.76785 45.4106L2.65098 45.794C2.53852 46.1626 2.43488 46.5334 2.33181 46.9046L2.23226 47.2631C2.12625 47.6469 2.02758 48.033 1.9298 48.4194L1.8473 48.7457C1.74511 49.1497 1.65349 49.5564 1.5607 49.9625L1.49903 50.2336C1.40565 50.6461 1.32226 51.0601 1.23887 51.4744L1.18367 51.749C1.09851 52.1703 1.02421 52.5934 0.94963 53.0162L0.905885 53.2633C0.828364 53.7016 0.761703 54.1414 0.695634 54.5815L0.665395 54.7817C0.596683 55.2358 0.538828 55.6918 0.481568 56.1478L0.460133 56.3171C0.401111 56.7883 0.353842 57.2604 0.305685 57.7322L0.293053 57.8545C0.244015 58.3292 0.208488 58.8046 0.171783 59.2802L0.161503 59.4175C0.125091 59.8987 0.101601 60.3807 0.0751738 60.8628L0.0687074 60.9781C0.0419861 61.4751 0.0281918 61.9727 0.0170335 62.4701L0.0155567 62.5258C0.00439831 63.0396 0 63.5536 0 64.0674V64.0999C0 64.614 0.0161445 65.128 0.0234855 65.6421L0.0243745 65.6999C0.0314219 66.2101 0.0584391 66.7206 0.0854541 67.2306L0.0877912 67.2693C0.319768 71.585 0.988396 75.8684 2.07134 80.0527L2.0778 80.0768C2.20817 80.58 2.3456 81.0811 2.49007 81.5808L2.52619 81.7049C2.66567 82.1861 2.80838 82.6667 2.95931 83.1443L3.00365 83.2849C3.14813 83.7423 3.297 84.1989 3.45351 84.6522L3.53397 84.8854C3.67286 85.2871 3.81528 85.6882 3.96298 86.0869L4.12067 86.5109C4.25486 86.8721 4.3955 87.2312 4.53763 87.5897C4.60546 87.7608 4.67505 87.9312 4.74435 88.102C4.85593 88.3763 4.96958 88.6495 5.08498 88.9227C5.19744 89.1876 5.31078 89.4517 5.42707 89.7152C5.51252 89.9097 5.59914 90.1039 5.68635 90.2979C5.83141 90.6192 5.98116 90.9387 6.12945 91.2585L6.13768 91.2758L6.26834 91.5498C6.42104 91.8658 6.57549 92.1812 6.732 92.4955V92.4955Z" fill="#FFCC29" fill-opacity=".6"/>
<path class="parts" fill-rule="evenodd" clip-rule="evenodd" d="M33.1698 7.95477C23.0794 13.4855 14.6922 21.6603 8.85693 31.5672C9.27302 33.6249 9.74021 35.672 10.2688 37.7035C12.427 45.9981 15.5026 54.0272 19.4547 61.6308C29.9227 43.9742 44.8887 29.3825 62.8657 19.4404C53.5579 14.2545 43.5509 10.3754 33.1698 7.95477V7.95477Z" fill="#F58634" fill-opacity=".6"/>
<path class="parts" fill-rule="evenodd" clip-rule="evenodd" d="M94.0966 7.60331C94.0076 7.55549 93.9187 7.50855 93.8291 7.46131L93.4119 7.24154C93.0959 7.07547 92.777 6.91471 92.4572 6.75539L92.0414 6.54823C91.7246 6.39037 91.4045 6.24016 91.0844 6.08935C90.9453 6.02363 90.8058 5.95849 90.6663 5.89365C90.3436 5.7446 90.0194 5.59876 89.6938 5.45529C89.5496 5.39162 89.4057 5.32797 89.2607 5.26518C88.9277 5.12082 88.5932 4.97968 88.2576 4.84149L87.8659 4.6804C87.5185 4.53751 87.1684 4.40166 86.8181 4.26728L86.4382 4.12147C86.0908 3.98826 85.7411 3.86181 85.3908 3.73712L84.9829 3.59187C84.6331 3.46718 84.2814 3.35011 83.9284 3.23363L83.5338 3.10334C83.1761 2.98539 82.8161 2.87479 82.4555 2.76564L82.0717 2.64916C81.702 2.53708 81.3306 2.43321 80.9585 2.32964L80.6003 2.23017C80.2159 2.12337 79.8298 2.02596 79.4434 1.92826L79.1168 1.84582C78.7125 1.74372 78.3055 1.65187 77.8991 1.55945L77.6278 1.49783C77.2155 1.40453 76.8012 1.32091 76.3869 1.23788L76.1114 1.18272C75.6894 1.09822 75.266 1.02311 74.8423 0.948584L74.5956 0.90516C74.1578 0.827701 73.7179 0.760213 73.2781 0.69449L73.0781 0.664863C72.6232 0.597379 72.1672 0.537224 71.7112 0.481183L71.5415 0.460051C71.0702 0.401957 70.5983 0.351798 70.1258 0.304853L70.0034 0.292819C69.5274 0.245287 69.0505 0.208028 68.5739 0.171645L68.4365 0.161373C67.955 0.124991 67.4725 0.10152 66.99 0.0751137L66.8746 0.0686524C66.3772 0.0419525 65.8792 0.0281618 65.3815 0.016719L65.3257 0.0155442C64.8115 0.00439479 64.2971 0 63.7829 0H63.7503C63.2379 0 62.7252 0.0117374 62.2128 0.0231802L62.1549 0.024355C61.639 0.035211 61.1237 0.0636599 60.6086 0.0859588L60.5696 0.087721C56.2516 0.273154 51.9662 1.00784 47.7818 2.07056L47.7571 2.07702C47.2536 2.20495 46.7532 2.3452 46.254 2.48838L46.1298 2.52388C45.6485 2.66207 45.1684 2.80673 44.6906 2.95695L44.55 3.00125C44.0922 3.14561 43.6353 3.29437 43.1816 3.45076L42.9482 3.53113C42.5462 3.66991 42.1451 3.81222 41.7463 3.95981L41.322 4.11737C40.9602 4.25116 40.6008 4.39111 40.2423 4.53341C40.0705 4.60177 39.8996 4.67101 39.7281 4.74026C39.4536 4.85146 39.1805 4.96589 38.9074 5.08091C38.6422 5.19328 38.3783 5.30714 38.1146 5.42274C37.9199 5.50812 37.7252 5.59467 37.5311 5.68211C37.2093 5.82646 36.8901 5.97639 36.57 6.12456L36.5527 6.13247L36.2808 6.26244C35.9651 6.4156 35.6495 6.57052 35.335 6.72691C45.5393 9.28834 55.3663 13.2414 64.5108 18.447C72.5084 14.202 80.9812 10.9171 89.7463 8.63963C91.1893 8.26495 92.6402 7.92049 94.0966 7.60331V7.60331Z" fill="#A8CF45" fill-opacity=".6"/>
</g>
</g>
</svg>
